<svg width="92" height="61" viewBox="0 0 92 61" fill="none" xmlns="http://www.w3.org/2000/svg">
<g clip-path="url(#clip0_1768_10748)">
<path d="M48.4277 4.03027C53.2941 3.28086 57.9861 4.15754 60.4092 5.15527C63.6653 6.48801 66.9094 7.85969 70.0947 9.35352C71.7985 10.1541 73.4681 10.3768 75.2695 9.9375C78.4307 9.16614 81.4335 9.47537 84.2773 11.1768C85.6297 11.9847 87.0793 12.6349 88.4805 13.3623C89.4885 13.8871 89.852 14.6755 89.7422 15.8447C89.5053 18.3588 88.3047 19.86 85.8516 20.4678C85.383 20.5849 84.9241 20.7359 84.4629 20.8799C81.3457 21.849 80.2226 23.3945 80.1592 26.6094C80.1152 28.9015 79.9663 31.1913 79.8613 33.5664C76.4757 33.6274 73.3288 33.7344 71.2002 36.6025C73.4898 36.1559 75.687 35.6513 77.9082 35.3145C80.708 34.8897 82.5808 35.8192 83.8525 39.2998C84.9779 42.3779 84.9333 45.5004 83.1611 48.4053C82.7072 49.1472 82.0755 49.7795 81.5459 50.4385C79.6395 49.3156 78.8576 46.1228 79.8926 44.3018C80.5858 43.0837 79.9246 40.4447 78.7139 39.9004C78.3844 39.7517 77.8597 39.9127 77.4668 40.0518C75.6385 40.6864 73.8586 41.502 71.9961 41.9951C68.8887 42.8152 65.9325 41.0771 65.4395 38.0527C65.2028 36.6053 65.5884 35.0554 65.6836 33.6787C64.0995 34.3697 63.4771 37.809 63.9238 39.8154C64.4731 42.2662 67.2585 43.8702 71.6475 44.1973C70.3025 44.9613 69.2865 45.6344 68.1953 46.1396C65.2906 47.4773 62.1932 48.1884 59.0225 48.2129C55.461 48.2397 51.8969 47.8877 48.333 47.8242C46.4461 47.79 44.5543 48.0225 42.5918 48.1396H42.5791C43.7288 46.6433 44.8181 45.2224 45.9092 43.8018C45.7871 43.6797 45.667 43.5571 45.5449 43.4375C44.9665 43.8792 44.3763 44.3044 43.8174 44.7705C41.7279 46.5061 39.7599 48.408 37.5459 49.9629C32.8616 53.2582 27.6279 55.0111 21.8525 54.2959C18.9282 53.9346 16.7433 55.1794 14.4072 56.5586C12.125 57.9035 9.71337 59.1462 7.2041 59.9541C5.09017 60.6351 2.77801 60.4124 0.791016 59.082C-0.223865 58.4036 -0.233775 57.8008 0.595703 56.9004C1.53294 55.885 2.79281 55.4914 4.02051 55.6816C6.5738 56.0795 8.6883 55.1453 10.5996 53.7344C12.2864 52.4894 13.7537 50.949 15.3574 49.5869C15.7138 49.2843 16.2311 49.0225 16.6826 49.0078C20.886 48.8735 24.074 47.1043 26.0684 43.3379C27.3279 40.9579 28.7313 38.6897 30.8477 36.9492C32.5294 35.5652 34.4751 34.8042 36.6084 34.582C39.4252 34.2867 42.2911 34.3036 45.0664 33.8057C49.797 32.9587 54.279 31.389 58.2285 28.4795C60.0812 27.115 62.1517 26.0457 64.0947 24.8008C64.7 24.4127 65.2154 23.8831 65.6426 23.207C65.0201 23.5366 64.3969 23.8677 63.7744 24.1973C63.7013 24.1144 63.6258 24.034 63.5527 23.9512C65.0857 22.4768 66.6189 21.0027 68.1787 19.5039C67.6101 19.687 67.0583 19.8648 66.3896 20.082C66.8608 17.9071 68.4427 16.9012 70.0928 15.7588C63.6607 15.7661 57.4182 15.2537 52.4824 10.5254C50.5321 8.65805 48.6432 6.72423 46.4902 4.58594C47.3832 4.32242 47.8958 4.07431 48.4277 4.03027ZM18.8691 55.9287C19.7161 55.526 20.9149 55.8652 22.1914 55.8652C18.7276 58.6871 14.0997 60.4521 11.3975 60.0518C13.8946 58.6482 16.3135 57.1443 18.8691 55.9287ZM45.2051 49.751C40.826 54.1887 30.7811 57.6576 27.832 55.7148C31.9622 55.0216 35.6114 53.3468 39.1484 51.2695C40.4519 50.5055 42.1291 50.3686 43.6426 49.9756C44.1039 49.856 44.59 49.8364 45.2051 49.751ZM82.8584 35.0596C85.1431 34.94 86.9401 35.4867 88.1875 37.3125C90.4845 40.6714 91.7567 44.2941 90.8975 48.4121C90.7486 49.1297 90.3329 49.7933 89.9619 50.667C87.9337 48.9486 86.9746 46.9887 86.7842 44.6309C86.501 41.106 85.3946 37.9156 82.8584 35.0596ZM21.3027 34.752C24.3977 32.8579 29.3211 32.6114 30.7422 34.0635C28.8406 36.4191 26.9616 38.7533 24.9014 41.3066C22.6019 40.6061 21.7646 38.5235 21.291 36.0068C21.6132 36.1728 21.8307 36.2852 22.3262 36.5391C21.8868 35.7726 21.5957 35.2621 21.3027 34.752ZM51.4941 0.0390625C58.8685 -0.515051 72.3117 4.8659 73.6982 9.17188C72.4217 8.69104 71.3547 8.32702 70.3174 7.89258C66.4898 6.28394 62.7133 4.53347 58.8271 3.08105C57.1599 2.45861 55.2751 2.3901 53.4785 2.15332C52.2364 1.98964 51.8847 1.11544 51.4941 0.0390625Z" fill="#4B5AFF"/>
</g>
<defs>
<clipPath id="clip0_1768_10748">
<rect width="91.1774" height="60.3252" fill="white"/>
</clipPath>
</defs>
</svg>
