<svg xmlns="http://www.w3.org/2000/svg" version="1.1" xmlns:xlink="http://www.w3.org/1999/xlink" width="100" height="100"><svg xmlns="http://www.w3.org/2000/svg" version="1.1" xmlns:xlink="http://www.w3.org/1999/xlink" width="100" height="100"><svg width="100" height="100" viewBox="0 0 100 100" fill="none" xmlns="http://www.w3.org/2000/svg">
<rect width="100" height="100" rx="50" fill="black"></rect>
<g clip-path="url(#clip0_1737_3758)">
<path d="M50.916 30.166C54.1409 29.6695 57.2496 30.2509 58.8555 30.9121C61.0136 31.7954 63.1642 32.7043 65.2754 33.6943C66.4045 34.2249 67.5113 34.3722 68.7051 34.0811C70.7999 33.57 72.7893 33.7759 74.6738 34.9033C75.57 35.4388 76.5314 35.8685 77.46 36.3506C78.1281 36.6984 78.3696 37.2212 78.2969 37.9961C78.14 39.6624 77.3436 40.6577 75.7178 41.0605C75.4072 41.1382 75.1026 41.2385 74.7969 41.334C72.7313 41.9762 71.9874 43.0004 71.9453 45.1309C71.9162 46.6498 71.8176 48.1672 71.748 49.7412C69.5042 49.7817 67.4185 49.853 66.0078 51.7539C67.5252 51.4579 68.9811 51.1227 70.4531 50.8994C72.3086 50.6179 73.5497 51.2343 74.3926 53.541C75.1384 55.581 75.109 57.6501 73.9346 59.5752C73.6337 60.0669 73.2153 60.4862 72.8643 60.9229C71.6009 60.1787 71.0829 58.0634 71.7686 56.8564C72.228 56.0492 71.7897 54.3003 70.9873 53.9395C70.769 53.8408 70.4216 53.9478 70.1611 54.04C68.9494 54.4607 67.7695 55.0004 66.5352 55.3271C64.4758 55.8707 62.5163 54.7192 62.1895 52.7148C62.0325 51.7555 62.2885 50.7279 62.3516 49.8154C61.3017 50.2733 60.8895 52.553 61.1855 53.8828C61.5497 55.5069 63.3952 56.5693 66.3037 56.7861C65.4124 57.2924 64.7397 57.7394 64.0166 58.0742C62.0915 58.9608 60.038 59.4321 57.9365 59.4482C55.5763 59.466 53.2144 59.2325 50.8525 59.1904C49.6021 59.1678 48.3484 59.3218 47.0479 59.3994H47.0391C47.801 58.4077 48.523 57.466 49.2461 56.5244C49.1652 56.4435 49.0858 56.3625 49.0049 56.2832C48.6215 56.576 48.2298 56.858 47.8594 57.167C46.4748 58.317 45.1711 59.577 43.7041 60.6074C40.5996 62.7914 37.1304 63.9535 33.3027 63.4795C31.3649 63.2402 29.9171 64.0646 28.3691 64.9785C26.8565 65.8699 25.2578 66.694 23.5947 67.2295C22.1938 67.6808 20.6615 67.533 19.3447 66.6514C18.672 66.2017 18.6659 65.802 19.2158 65.2051C19.837 64.5323 20.6717 64.2723 21.4854 64.3984C23.1773 64.662 24.5782 64.0423 25.8447 63.1074C26.9626 62.2824 27.9352 61.2611 28.998 60.3584C29.2342 60.1578 29.5777 59.9853 29.877 59.9756C32.6626 59.8865 34.775 58.7129 36.0967 56.2168C36.9314 54.6395 37.8621 53.1368 39.2646 51.9834C40.3792 51.0662 41.6683 50.5613 43.082 50.4141C44.9489 50.2183 46.8491 50.2294 48.6885 49.8994C51.8235 49.338 54.7937 48.2983 57.4111 46.3701C58.639 45.4658 60.0111 44.7567 61.2988 43.9316C61.6999 43.6744 62.0412 43.323 62.3242 42.875C61.9118 43.0934 61.4994 43.3139 61.0869 43.5322C61.0385 43.4773 60.9879 43.4241 60.9395 43.3691C61.9554 42.392 62.9711 41.4142 64.0049 40.4209C63.628 40.5422 63.2625 40.6607 62.8193 40.8047C63.1316 39.3633 64.1798 38.6966 65.2734 37.9395C61.0106 37.9443 56.8737 37.6043 53.6025 34.4707C52.31 33.2332 51.0576 31.9522 49.6309 30.5352C50.223 30.3604 50.5633 30.1951 50.916 30.166ZM31.333 64.5645C31.8942 64.2977 32.6884 64.5224 33.5342 64.5225C31.239 66.3922 28.1724 67.5621 26.3818 67.2969C28.0365 66.3668 29.6395 65.3699 31.333 64.5645ZM48.7666 60.4697C45.8649 63.41 39.2096 65.7083 37.2559 64.4209C39.9923 63.9616 42.4104 62.8519 44.7539 61.4756C45.6176 60.9693 46.7296 60.8786 47.7324 60.6182C48.0378 60.5391 48.3595 60.5262 48.7666 60.4697ZM73.7295 50.7295C75.2433 50.6502 76.4343 51.0129 77.2607 52.2227C78.7827 54.4482 79.625 56.8486 79.0557 59.5771C78.957 60.0525 78.6823 60.4924 78.4365 61.0713C77.0925 59.9327 76.4572 58.6337 76.3311 57.0713C76.1434 54.7359 75.4099 52.6217 73.7295 50.7295ZM32.9365 50.5264C34.9874 49.2713 38.2499 49.1071 39.1914 50.0693C37.9314 51.6302 36.6854 53.1773 35.3203 54.8691C33.7969 54.4049 33.2425 53.0249 32.9287 51.3574C33.1421 51.4673 33.2861 51.5418 33.6143 51.71C33.3232 51.2023 33.1306 50.8643 32.9365 50.5264ZM52.9502 27.5244C57.8375 27.1572 66.7471 30.7234 67.666 33.5771C66.8199 33.2584 66.1124 33.0175 65.4248 32.7295C62.8883 31.6635 60.3858 30.5035 57.8105 29.541C56.7056 29.1285 55.4563 29.0827 54.2656 28.9258C53.4422 28.8174 53.209 28.2379 52.9502 27.5244Z" fill="white"></path>
</g>
<defs>
<clipPath id="clip0_1737_3758">
<rect width="60.4269" height="39.9799" fill="white" transform="translate(18.8047 27.5)"></rect>
</clipPath>
</defs>
</svg></svg><style>@media (prefers-color-scheme: light) { :root { filter: none; } }
@media (prefers-color-scheme: dark) { :root { filter: none; } }
</style></svg>